<?xml version="1.0" encoding="utf-8"?>
<!-- Generator: Adobe Illustrator 28.0.0, SVG Export Plug-In . SVG Version: 6.00 Build 0)  -->
<svg version="1.1" id="Camada_1" xmlns="http://www.w3.org/2000/svg" xmlns:xlink="http://www.w3.org/1999/xlink" x="0px" y="0px"
	 viewBox="0 0 1000 1000" style="enable-background:new 0 0 1000 1000;" xml:space="preserve">
<style type="text/css">
	.st0{display:none;fill:#FEFEFE;
	}
	.st1{fill:#FEFFEE;
	animation: cor1 ease-in-out 1s infinite 0s alternate;
	}
	.st2{fill:#FFFFFF;
		animation: cor2 ease-in-out 1s infinite 0s alternate;
	}

@keyframes cor1 {
	from{
		fill: #FEFFEE;
	}
	to{
		fill:#1b1c21;
	}
}

@keyframes cor2 {
	from{
		fill: #FEFFEE;
	}
	to{
		fill:#353436;
	}
}

</style>
<g>
	<path class="st0" d="M496.2,969.44c-153.94,0-307.89-0.04-461.83,0.15c-5.97,0.01-7.65-0.8-7.64-7.34
		c0.22-307.92,0.22-615.83-0.01-923.75c-0.01-6.85,1.72-7.84,8.06-7.84c307.58,0.18,615.17,0.18,922.75,0.01
		c6.23,0,8.12,0.81,8.11,7.79c-0.24,307.92-0.23,615.83-0.02,923.75c0,6.45-1.53,7.39-7.59,7.39
		C804.09,969.4,650.15,969.44,496.2,969.44z"/>
	<path class="st1" d="M555.77,554.18c-45.81,137.65-91.62,275.3-138.15,415.11c-10.45-25.44-20.07-48.74-29.62-72.08
		C278.64,629.81,169.29,362.41,59.98,94.98C52.28,76.12,34.36,30.8,34.36,30.8s14.3,14.12,16.67,16.49
		c165.22,165.23,330.45,330.47,495.63,495.75C550.03,546.42,554.38,549.13,555.77,554.18z"/>
	<path class="st2" d="M558.17,551.81c137.65-45.81,275.3-91.62,415.11-138.15c-25.44-10.45-48.74-20.07-72.08-29.62
		C633.79,274.69,366.39,165.33,98.96,56.03C80.1,48.32,34.78,30.4,34.78,30.4s14.12,14.3,16.49,16.67
		C216.51,212.29,381.74,377.52,547.02,542.7C550.4,546.08,553.11,550.42,558.17,551.81z"/>
</g>
</svg>
